<svg width="1920" height="748" viewBox="0 0 1920 748" fill="none" xmlns="http://www.w3.org/2000/svg">
<path d="M-15 448.8L1935 74.8L3885 673.2L5835 448.8L7785 299.2L9735 523.6L11685 0L13635 448.8L15585 598.4L17535 523.6H19485L21435 673.2L23385 74.8L25335 448.8L27285 374L29235 74.8L31185 374L33135 149.6H35085L37035 299.2L38985 224.4H40935L42885 598.4L44835 523.6H46785V748H44835H42885H40935H38985H37035H35085H33135H31185H29235H27285H25335H23385H21435H19485H17535H15585H13635H11685H9735H7785H5835H3885H1935H-15V448.8Z" fill="url(#paint0_linear_5_29)"/>
<defs>
<linearGradient id="paint0_linear_5_29" x1="-15" y1="748" x2="-15" y2="0" gradientUnits="userSpaceOnUse">
<stop stop-color="#FFDC32"/>
<stop offset="0.642725" stop-color="#FAA500"/>
</linearGradient>
</defs>
</svg>
