<svg width="1920" height="562" viewBox="0 0 1920 562" fill="none" xmlns="http://www.w3.org/2000/svg">
<path d="M1964 360L2 0L-1906 523.549L-3836 378.197L-5766 281.295L-7696 426.648L-9626 87.4922L-11556 378.197L-13486 475.098L-15416 426.648H-17346L-19276 523.549L-21206 135.943L-23136 378.197L-25066 329.746L-26996 135.943L-28926 329.746L-30856 184.394H-32786L-34716 281.295L-36646 232.845H-38576L-40506 475.098L-42436 426.648H-44366V572H-42436H-40506H-38576H-36646H-34716H-32786H-30856H-28926H-26996H-25066H-23136H-21206H-19276H-17346H-15416H-13486H-11556H-9626H-7696H-5766H-3836H-1906H24H1964V360Z" fill="url(#paint0_linear_5_29)"/>
<defs>
<linearGradient id="paint0_linear_5_29" x1="1902" y1="572" x2="1902" y2="87.4917" gradientUnits="userSpaceOnUse">
<stop stop-color="#FFDC32"/>
<stop offset="0.642725" stop-color="#FAA500"/>
</linearGradient>
</defs>
</svg>
